# xmcd
#
# Track frame offsets:
#	150
#	16287
#	27585
#	40473
#	53866
#	67220
#	74670
#	80537
#	92404
#	112719
#	119247
#	139951
#	156834
#
# Disc length: 2216 seconds
#
# Revision: 2
# Processed by: cddbd v1.5.2PL0 Copyright (c) Steve Scherf et al.
# Submitted via: EasyCDDAExtractor 11.9.9.666
#
DISCID=be08a60d
DTITLE=Pömpeli - Hilapiäles
DYEAR=1998
DGENRE=Folklore
TTITLE0=Eikä se valkia lämmitä
TTITLE1=Pidätyspolkka - Antaa Rumhin retkahtaa
TTITLE2=Hei lumpun lumpun - En oo rikhan rikas
TTITLE3=Ristilinjaanihoijakalla
TTITLE4=Taattoni maja
TTITLE5=Mamren lakeuren
TTITLE6=Tahtia, mahtia
TTITLE7=Minä vaan istun ja vuoleskelen
TTITLE8=Älä sinä flikka
TTITLE9=Isoniemen latopolokka
TTITLE10=Unelma valssi
TTITLE11=Holostikon Hanna - Raha ei lopu
TTITLE12=Härmänpolkka
EXTD=
EXTT0=
EXTT1=
EXTT2=
EXTT3=
EXTT4=
EXTT5=
EXTT6=
EXTT7=
EXTT8=
EXTT9=
EXTT10=
EXTT11=
EXTT12=
PLAYORDER=
